<svg xmlns="http://www.w3.org/2000/svg" viewBox="0 0 1200 720" role="img" aria-labelledby="title desc">
  <title id="title">The Experience Measurement Ladder</title><desc id="desc">Output, Usage, Experience, Understanding, Behaviour and Outcome ascend toward increasingly meaningful value.</desc>
  <defs>
    <style>
      .bg{fill:#F4F0E8}.line{stroke:#C9C4BA;stroke-width:1.4;fill:none}.line2{stroke:#A8442F;stroke-width:2.2;fill:none}.dash{stroke:#C9C4BA;stroke-width:1.4;fill:none;stroke-dasharray:5 7}.panel{fill:#FCFAF5;stroke:#C9C4BA;stroke-width:1.3}.panel2{fill:#F1DDD6;stroke:#A8442F;stroke-width:1.3}.dark{fill:#0B1428}.accent{fill:#A8442F}.warm{fill:#C98B42}.text{fill:#0C1830;font-family:Arial,Helvetica,sans-serif;font-size:15px;font-weight:600;letter-spacing:1.3px}.label{fill:#5E6571;font-family:Arial,Helvetica,sans-serif;font-size:11px;font-weight:700;letter-spacing:2px}.small{fill:#5E6571;font-family:Arial,Helvetica,sans-serif;font-size:13px;font-weight:500}.white{fill:#F8F3EB;font-family:Arial,Helvetica,sans-serif;font-size:15px;font-weight:600;letter-spacing:1.3px}.num{fill:#A8442F;font-family:Georgia,serif;font-size:31px;font-style:italic}
    </style>
    <linearGradient id="soft" x1="0" x2="1"><stop stop-color="#A8442F" stop-opacity=".16"/><stop offset="1" stop-color="#A8442F" stop-opacity="0"/></linearGradient>
  </defs>
  <rect class="bg" width="1200" height="720"/>

<text x="72" y="72" class="label">THE EXPERIENCE MEASUREMENT LADDER</text><text x="72" y="102" class="small">Move beyond what is easiest to count toward what actually changed.</text>
<g><path d="M140 604H1090" class="line"/><path d="M160 550H1090" class="line"/><path d="M300 496H1090" class="line"/><path d="M440 442H1090" class="line"/><path d="M580 388H1090" class="line"/><path d="M720 334H1090" class="line"/></g>
<g><rect class="panel" x="140" y="550" width="190" height="54"/><text x="180" y="584" class="text">01 · OUTPUT</text><rect class="panel" x="280" y="496" width="190" height="54"/><text x="330" y="530" class="text">02 · USAGE</text><rect class="panel2" x="420" y="442" width="215" height="54"/><text x="445" y="476" class="text">03 · EXPERIENCE</text><rect class="panel2" x="560" y="388" width="250" height="54"/><text x="584" y="422" class="text">04 · UNDERSTANDING</text><rect class="dark" x="700" y="334" width="220" height="54"/><text x="730" y="368" class="white">05 · BEHAVIOUR</text><rect class="accent" x="840" y="280" width="250" height="54"/><text x="891" y="314" class="white">06 · OUTCOME</text></g>
<path d="M1060 252v-87" stroke="#A8442F" stroke-width="2.2"/><path d="M1048 177l12-12 12 12" fill="none" stroke="#A8442F" stroke-width="2.2"/><text x="936" y="145" class="label">INCREASING STRATEGIC VALUE</text>
<text x="72" y="670" class="small">The further down the ladder an organisation can measure, the more meaningful its evaluation becomes.</text>
</svg>