<svg xmlns="http://www.w3.org/2000/svg" viewBox="0 0 1600 900" role="img" aria-labelledby="title desc"><title id="title">BPCL Palakkad Installation — Making the Future Visible</title><desc id="desc">Industrial visualization thumbnail showing a BPCL Palakkad installation concept with physical miniature and digital walkthrough.</desc><defs><linearGradient id="bg" x1="0" y1="0" x2="1" y2="1"><stop offset="0" stop-color="#071017"/><stop offset=".55" stop-color="#17272f"/><stop offset="1" stop-color="#05090c"/></linearGradient><linearGradient id="ground" x1="0" y1="0" x2="0" y2="1"><stop offset="0" stop-color="#33454a"/><stop offset="1" stop-color="#10191d"/></linearGradient><filter id="glow"><feGaussianBlur stdDeviation="10" result="b"/><feMerge><feMergeNode in="b"/><feMergeNode in="SourceGraphic"/></feMerge></filter></defs><rect width="1600" height="900" fill="url(#bg)"/><path d="M0 680 260 545 530 610 810 485 1110 600 1390 470 1600 550V900H0Z" fill="url(#ground)"/><g opacity=".55" stroke="#587077" stroke-width="2"><path d="M0 760 1600 590M0 820 1600 650M180 900 530 570M520 900 800 500M980 900 1110 600M1280 900 1390 470"/></g><g fill="#e9e6d7" stroke="#9ca8a6" stroke-width="3"><ellipse cx="400" cy="560" rx="78" ry="27"/><path d="M322 560v100q0 30 78 30t78-30V560"/><ellipse cx="400" cy="660" rx="78" ry="27"/><ellipse cx="620" cy="500" rx="64" ry="23"/><path d="M556 500v92q0 27 64 27t64-27v-92"/><ellipse cx="620" cy="592" rx="64" ry="23"/><ellipse cx="825" cy="595" rx="88" ry="30"/><path d="M737 595v112q0 35 88 35t88-35V595"/><ellipse cx="825" cy="707" rx="88" ry="30"/><ellipse cx="1080" cy="515" rx="62" ry="22"/><path d="M1018 515v90q0 27 62 27t62-27v-90"/><ellipse cx="1080" cy="605" rx="62" ry="22"/></g><g stroke="#edbd00" stroke-width="9" fill="none"><path d="M285 455h520v80M705 455v-95h350M980 360h230v105"/><path d="M330 720h960"/></g><g fill="#f3c400" filter="url(#glow)"><circle cx="310" cy="735" r="5"/><circle cx="410" cy="745" r="5"/><circle cx="520" cy="725" r="5"/><circle cx="700" cy="770" r="5"/><circle cx="930" cy="735" r="5"/><circle cx="1160" cy="700" r="5"/><circle cx="1320" cy="660" r="5"/></g><g font-family="Arial,Helvetica,sans-serif"><text x="88" y="105" fill="#edbd00" font-size="24" font-weight="700" letter-spacing="6">BPCL / PALAKKAD INSTALLATION</text><text x="88" y="190" fill="#fff" font-size="92" font-weight="700" letter-spacing="-4">MAKING THE</text><text x="88" y="280" fill="#fff" font-size="92" font-weight="700" letter-spacing="-4">FUTURE</text><text x="88" y="370" fill="#edbd00" font-size="92" font-weight="700" letter-spacing="-4">VISIBLE.</text><rect x="88" y="415" width="380" height="1" fill="#75848a"/><text x="88" y="455" fill="#bfc9cc" font-size="18" letter-spacing="2">PHYSICAL MINIATURE  ×  DIGITAL WALKTHROUGH</text><rect x="1200" y="80" width="310" height="74" rx="4" fill="#f3f2ee"/><text x="1230" y="126" fill="#1265a8" font-size="24" font-weight="700">BHARAT PETROLEUM</text><text x="88" y="835" fill="#fff" font-size="18" letter-spacing="4">PLAN  →  PLACE  →  EXPERIENCE</text></g></svg>